<svg viewBox="0 0 678 457" xmlns="http://www.w3.org/2000/svg" style="fill-rule:evenodd;clip-rule:evenodd;stroke-linecap:round;stroke-linejoin:round;stroke-miterlimit:1.5;"><rect x="0" y="0" width="677.675" height="456.154" style="fill:none;"/><path d="M185.447,131.751c-28.496,63.369 -39.7,108.014 -96.833,98.194c-57.133,-9.819 -83.552,-55.603 -75.056,-119.998c8.497,-64.394 51.843,-80.266 105.65,-56.354c45.351,20.154 82.691,41.57 66.239,78.158Z" style="fill:#e3eff8;"/><path d="M607.47,232.718c-70.044,95.936 -70.922,87.231 -211.38,95.168c-148.08,8.367 -157.632,43.048 -199.788,-70.466c-28.171,-75.857 118.877,-250.768 261.5,-208.315c120.211,35.782 199.374,115.532 149.668,183.613Z" style="fill:#e3eff8;"/><path d="M116.362,394.376l-34.177,0c0,0 -11.54,0.199 -11.54,-8.814l1.025,-69.554l11.197,0l0,-31.327c0,0 -4.374,-31.038 38.921,-64.171l-10.382,-25.226l210.729,0c0,0 74.257,-3.035 163.442,68.203c0,0 10.768,8.973 24.712,11.32c0,0 95.392,20.571 96.741,64.749l0,42.625c0,0 0.14,15.562 -13.32,15.562l-32.609,0c0,0 5.837,-65.823 -65.768,-72.1c0,0 -61.096,-2.054 -65.768,65.768l-181.666,0c0,0 0.155,-62.813 -65.769,-65.768c0,0 -63.024,0.208 -65.768,68.733Z" style="fill:#fff;"/><path d="M113.748,394.345l-29.482,0c0,0 -13.621,0.898 -13.621,-8.467c0,-9.365 1.03,-69.867 1.03,-69.867l11.142,0l0,-31.34c0,0 -3.735,-32.412 39.026,-64.029l-10.307,-25.35l208.112,0c0,0 77.165,-2.19 163.131,65.711c0,0 5.731,6.578 24.23,13.289c0,0 100.021,19.477 100.021,65.343l0,44.505c0,0 -0.68,13.603 -13.602,13.603l-29.018,0" style="fill:none;stroke:#234a76;stroke-width:5px;"/><path d="M564.41,397.743l-3.309,0l0,-6.332" style="fill:none;stroke:#234a76;stroke-width:5px;"/><path d="M113.748,394.345l2.614,0l0,-2.934" style="fill:none;stroke:#234a76;stroke-width:5px;"/><path d="M182.13,325.643c36.299,0 65.769,29.47 65.769,65.768" style="fill:none;stroke:#234a76;stroke-width:5px;"/><path d="M247.899,391.411l181.666,0" style="fill:none;stroke:#234a76;stroke-width:5px;"/><path d="M116.362,391.411c0,-36.298 29.47,-65.768 65.768,-65.768" style="fill:none;stroke:#234a76;stroke-width:5px;"/><path d="M495.333,325.643c36.299,0 65.768,29.47 65.768,65.768" style="fill:none;stroke:#234a76;stroke-width:5px;"/><path d="M429.565,391.411c0,-36.298 29.469,-65.768 65.768,-65.768" style="fill:none;stroke:#234a76;stroke-width:5px;"/><circle cx="184.348" cy="394.577" r="47.577" style="fill:#fff;stroke:#234a76;stroke-width:5px;"/><circle cx="184.348" cy="394.577" r="24.816" style="fill:#e3eff8;stroke:#234a76;stroke-width:5px;"/><circle cx="495.806" cy="394.577" r="47.577" style="fill:#fff;stroke:#234a76;stroke-width:5px;"/><circle cx="495.806" cy="394.577" r="24.816" style="fill:#e3eff8;stroke:#234a76;stroke-width:5px;"/><path d="M459.907,269.143c0,0 -58.761,-53.441 -133.241,-53.441l-133.723,0c0,0 -43.769,-2.176 -68.434,53.441l335.398,0Z" style="fill:#e3eff8;stroke:#234a76;stroke-width:5px;"/><path d="M555.876,289.362c0,0 3.143,55.81 50.781,50.273c0,0 6.386,-26.257 -50.781,-50.273Z" style="fill:#e3eff8;stroke:#234a76;stroke-width:5px;"/><path d="M124.509,269.143c0,0 -13.692,53.068 15.454,70.878" style="fill:none;stroke:#234a76;stroke-width:5px;"/><path d="M239.434,358.527l130.434,0" style="fill:none;stroke:#234a76;stroke-width:5px;"/><path d="M282.51,215.69l0,142.837" style="fill:none;stroke:#234a76;stroke-width:5px;"/><path d="M72.027,358.527l15.926,0" style="fill:none;stroke:#234a76;stroke-width:5px;"/><path d="M96.278,358.527l7.067,0" style="fill:none;stroke:#234a76;stroke-width:5px;"/><path d="M111.114,358.527l13.666,0" style="fill:none;stroke:#234a76;stroke-width:5px;"/><path d="M379.783,358.527l11.357,0" style="fill:none;stroke:#234a76;stroke-width:5px;"/><path d="M399.98,358.527l37.536,0" style="fill:none;stroke:#234a76;stroke-width:5px;"/><path d="M552.587,358.527l54.443,0" style="fill:none;stroke:#234a76;stroke-width:5px;"/><path d="M459.907,269.143c0,0 22.005,23.188 23.723,56.5" style="fill:none;stroke:#234a76;stroke-width:5px;"/><circle cx="650.115" cy="426.538" r="15.616" style="fill:none;stroke:#e3eff8;stroke-width:5px;"/><circle cx="18.418" cy="242.718" r="11.418" style="fill:none;stroke:#e3eff8;stroke-width:5px;"/><circle cx="596.95" cy="101.782" r="8.67" style="fill:none;stroke:#e3eff8;stroke-width:5px;"/></svg>