<svg viewBox="0 0 709 186" xmlns="http://www.w3.org/2000/svg"><path d="M163.067,122.458c-16.121,0 -33.521,9.009 -33.521,27.146c0,20.05 25.941,20.071 35.087,4.2c0.879,-1.521 1.529,-3.521 1.784,-5.871c0.729,-6.904 0.146,-16.954 0.146,-25.475l-3.496,0Zm41.783,27.879c0.108,3.292 -0.525,16.859 5.625,17.405c3.937,0.35 5.812,3.708 5.85,6.904c0.062,3.354 -1.625,5.379 -4.675,6.241c-2.296,0.684 -4.8,0.867 -8.183,0.867l-23,0c-1.817,0 -5.709,0.154 -7.642,-0.746c-4.121,-1.945 -4.879,-9.35 -4.879,-13.266c-7.796,12.458 -21.479,17.337 -35.334,17.412c-9.279,0.054 -21.195,-1.541 -28.783,-7.491c-6.767,-5.271 -11.012,-13.751 -12.329,-22.676c-1.308,-8.937 0.317,-18.354 5.279,-25.529c13.125,-19.025 48.217,-21.637 69.046,-21.637c0,-12.834 -8.167,-23.763 -21.642,-23.763c-6.137,0 -10.9,4.13 -15.975,8c-4.475,3.421 -9.196,6.65 -15.316,6.65c-7.205,0 -12.196,-3.85 -13.588,-8.566c-1.396,-4.692 0.821,-10.25 7.975,-13.717c11.108,-5.371 24.504,-8.004 37.933,-7.996c14.284,0.021 28.592,2.988 40.134,8.729c6.879,3.446 11.558,8.938 14.521,15.359c2.97,6.42 4.229,13.758 4.345,20.925l0.638,36.895Z" style="fill:#fff;"/><path d="M655.383,122.629c-16.112,0 -33.508,9.025 -33.508,27.163c0,20.041 25.929,20.07 35.071,4.191c0.883,-1.512 1.554,-3.516 1.796,-5.875c0.72,-6.912 0.137,-16.958 0.137,-25.479l-3.496,0Zm41.8,27.904c0.096,3.296 -0.525,16.846 5.617,17.396c3.942,0.35 5.808,3.696 5.863,6.913c0.045,3.346 -1.638,5.383 -4.684,6.245c-2.304,0.68 -4.808,0.851 -8.175,0.851l-23.021,0c-1.804,0 -5.704,0.145 -7.633,-0.763c-4.133,-1.917 -4.879,-9.333 -4.879,-13.246c-7.813,12.458 -21.484,17.334 -35.342,17.413c-9.266,0.054 -21.187,-1.563 -28.779,-7.492c-6.754,-5.275 -11.004,-13.742 -12.317,-22.679c-1.312,-8.946 0.304,-18.342 5.271,-25.529c13.133,-19.021 48.217,-21.646 69.034,-21.646c0,-12.821 -8.159,-23.758 -21.638,-23.758c-6.133,0 -10.896,4.145 -15.979,8.004c-4.463,3.425 -9.188,6.633 -15.317,6.633c-7.191,0 -12.179,-3.821 -13.571,-8.533c-1.391,-4.717 0.817,-10.275 7.967,-13.73c11.1,-5.383 24.512,-7.995 37.942,-7.987c14.27,0.012 28.587,2.979 40.121,8.733c6.887,3.442 11.554,8.925 14.525,15.334c2.979,6.421 4.225,13.783 4.345,20.925l0.65,36.916Z" style="fill:#fff;"/><path d="M439.175,122.458c-16.112,0 -33.542,9.009 -33.542,27.146c0,20.05 25.959,20.071 35.105,4.2c0.883,-1.529 1.529,-3.521 1.791,-5.883c0.733,-6.904 0.142,-16.942 0.142,-25.463l-3.496,0Zm41.783,27.879c0.109,3.292 -0.521,16.859 5.621,17.392c3.938,0.35 5.817,3.708 5.871,6.917c0.046,3.354 -1.642,5.379 -4.679,6.241c-2.321,0.671 -4.809,0.855 -8.179,0.855l-23.017,0c-1.821,0 -5.717,0.166 -7.633,-0.742c-4.138,-1.937 -4.904,-9.342 -4.904,-13.271c-7.788,12.471 -21.475,17.338 -35.342,17.425c-9.275,0.046 -21.221,-1.541 -28.817,-7.491c-6.779,-5.271 -11.021,-13.751 -12.337,-22.676c-1.321,-8.945 0.312,-18.354 5.275,-25.541c13.145,-19.013 48.295,-21.638 69.121,-21.638c0,-12.821 -8.184,-23.75 -21.638,-23.75c-6.146,0 -10.929,4.13 -16,8c-4.488,3.413 -9.208,6.638 -15.338,6.638c-7.216,0 -12.22,-3.838 -13.612,-8.554c-1.396,-4.704 0.825,-10.25 7.971,-13.717c11.133,-5.383 24.562,-8.004 37.987,-7.996c14.304,0.013 28.6,2.975 40.142,8.729c6.892,3.446 11.554,8.925 14.529,15.359c2.979,6.42 4.221,13.758 4.359,20.912l0.62,36.908Z" style="fill:#fff;"/><path d="M544.85,147.733c0,3.734 0.467,8.696 2.013,12.517c3.387,8.413 27.604,-3.271 27.258,13.279c-0.108,5.513 -7.317,8.379 -15.379,8.379l-32.03,0c-4.245,0 -14.587,0.579 -17.504,-5.625c-1.266,-2.721 -2.012,-7.008 -2.012,-12.512l0,-75.313c-7.109,0 -18.875,1.584 -18.875,-8.391c0,-4.975 4.129,-8.379 9.117,-8.379c3.787,0 9.741,-1.071 13.391,-2.33c6.871,-2.383 15.075,-9.745 16.1,-26.187c0.308,-5.084 3.284,-11.233 8.271,-11.888c8.6,-1.05 8.904,2.45 8.904,11.134l0,27.896l23.342,0l0.208,18.145l-22.804,0l0,59.275Z" style="fill:#fff;"/><path d="M309.371,109.35c0,-11.975 -6.892,-23.658 -20.15,-23.658c-19.658,0 -25.904,26.525 -25.904,41.796c0,15.183 5.087,39.025 24.525,39.025c14.637,0 21.529,-12.938 21.529,-25.771l0,-31.392Zm0,-55.054c0,-0.117 0.175,-17.896 -1.913,-21.142c-0.45,-0.691 -1.216,-1.479 -1.916,-1.95l-8.684,-5.533c-1.554,-1.004 -2.2,-3.533 -1.791,-5.404c0.42,-1.892 1.791,-3.054 3.912,-3.609l38.288,-10.512c2.712,-0.7 4.445,1.042 5.637,3.796c2.371,5.479 2.433,15.141 2.433,19.229l0,121.321c0,1.587 -0.12,8.708 0.734,12.525c0.579,2.625 3.354,3.508 5.8,4.658c2.762,1.292 5.408,2.833 5.358,7.208c-0.087,7.121 -9.346,7.025 -14.237,7.025l-19.617,0c-2.542,0 -10.613,0.396 -11.883,-4.891c-0.567,-2.371 -0.742,-5.621 -0.742,-9.759c-6.892,11.784 -18.767,18.138 -34.158,18.138c-31.775,0 -52.992,-25.771 -52.992,-56.529c0,-46.138 46.837,-76.046 85.771,-52.288l0,-22.283Z" style="fill:#fff;"/><path d="M55.367,150.492c0,5.316 0.737,11.879 0.737,13.279c2.017,4.442 10.396,4.133 10.396,11.112c0,6.709 -6.788,7.025 -11.767,7.025l-37.016,0c-4.775,0 -11.875,0.096 -11.875,-7.025c0,-6.454 10.495,-8.683 10.495,-11.112c0,-0.754 1.38,-6.267 1.38,-12.538l0,-62.775l-17.717,0l0,-18.145l17.717,0c-0.009,-10.021 -0.363,-20.913 1.458,-30.796c3.879,-20.925 22.733,-39.517 43.508,-39.517c7.138,0 20.292,3.488 20.471,13.463c0.242,13.587 -7.637,16.312 -13.154,16.341c-5.471,0.034 -7.837,-1.837 -8.862,-4.233c-1.838,-4.242 0.558,-10.15 -2.913,-9.875c-4.183,0 -2.858,48.837 -2.858,54.617l18.137,0l0,18.145l-18.137,0l0,62.034Z" style="fill:#fff;"/></svg>