<svg viewBox="0 0 678 457" xmlns="http://www.w3.org/2000/svg" style="fill-rule:evenodd;clip-rule:evenodd;stroke-linecap:round;stroke-linejoin:round;stroke-miterlimit:1.5;"><clipPath><rect x="0.546" y="-0.484" width="677.129" height="456.412"/></clipPath><rect x="0" y="0" width="677.675" height="456.154" style="fill:none;"/><path d="M473.946,144.262c21.438,-61.33 27.111,-103.172 89.217,-103.141c62.107,0.031 96.589,37.107 96.555,96.28c-0.035,59.174 -41.945,107.569 -102.485,94.362c-51.027,-11.131 -95.664,-52.091 -83.287,-87.501Z" style="fill:#e3eff8;"/><path d="M94.356,83.886c113.533,-44.64 179.969,-87.869 256.387,0.773c76.419,88.641 66.193,183.309 -17.926,255.838c-84.118,72.529 -204.477,72.098 -260.247,-30.468c-47.006,-86.449 -43.764,-200.369 21.786,-226.143Z" style="fill:#e3eff8;"/><path d="M43.654,17.852c6.019,-10.425 19.369,-14.003 29.793,-7.985c10.424,6.019 14.001,19.369 7.982,29.794c-6.02,10.426 -19.369,14.004 -29.794,7.985c-10.424,-6.018 -14.001,-19.369 -7.981,-29.794Z" style="fill:none;stroke:#e3eff8;stroke-width:4px;"/><path d="M62.63,357.651c2.877,-4.984 9.26,-6.695 14.243,-3.817c4.984,2.877 6.694,9.26 3.816,14.244c-2.877,4.984 -9.26,6.694 -14.243,3.817c-4.984,-2.877 -6.694,-9.26 -3.816,-14.244Z" style="fill:none;stroke:#e3eff8;stroke-width:4px;"/><path d="M596.089,256.002c3.293,-5.703 10.597,-7.661 16.3,-4.368c5.703,3.293 7.66,10.596 4.367,16.3c-3.293,5.704 -10.597,7.661 -16.3,4.368c-5.703,-3.292 -7.66,-10.596 -4.367,-16.3Z" style="fill:none;stroke:#e3eff8;stroke-width:4px;"/><path d="M529.04,372.749c6.695,9.038 19.467,10.941 28.504,4.246c9.037,-6.694 10.939,-19.467 4.244,-28.505c-6.696,-9.038 -19.468,-10.941 -28.505,-4.246c-9.037,6.694 -10.939,19.467 -4.243,28.505Z" style="fill:none;stroke:#e3eff8;stroke-width:4px;"/><path d="M449.032,204.832l0,19.406c0,0 -1.152,7.167 -7.956,11.375c0,0 -23.091,9.077 -28.188,13.264c0,0 52.398,52.324 124.501,0.83c0,0 -4.425,-4.148 -30.261,-14.105c0,0 -6.166,-3 -7.865,-11.744l0,-19.026c0,0 -22.385,12.567 -50.231,0Z" style="fill:#e3eff8;"/><path d="M449.032,204.832l0,19.406c0,0 -1.152,7.167 -7.956,11.375c0,0 -23.091,9.077 -28.188,13.264c0,0 52.398,52.324 124.501,0.83c0,0 -4.425,-4.148 -30.261,-14.105c0,0 -6.166,-3 -7.865,-11.744l0,-19.026c0,0 -22.385,12.567 -50.231,0Z" style="fill:#fff;"/><path d="M440.785,238.606c0,0 -68.651,15.667 -68.651,57.388l0,61.815c0,0 -1.792,80.979 103.22,76.846c0,0 98.589,-1.749 101.625,-69.694l0,-72.543c0,0 1.096,-16.348 -16.01,-28.268c0,0 -27.333,-18.902 -50.61,-24.522l-69.574,-1.022Z" style="fill:#fff;"/><ellipse cx="473.485" cy="146.332" rx="49.748" ry="64.1" style="fill:#fff;stroke:#234a76;stroke-width:5px;"/><path d="M448.174,202.816l0,19.198c0,0 -0.551,7.98 -8.261,12.941c0,0 -67.736,23.296 -67.736,52.415l0,66.435" style="fill:none;stroke:#234a76;stroke-width:5px;"/><path d="M500.982,202.816l0,19.198c0,0 0.55,7.98 8.26,12.941c0,0 67.737,23.296 67.737,52.415" style="fill:none;stroke:#234a76;stroke-width:5px;"/><path d="M576.993,299.534l0,16.462" style="fill:none;stroke:#234a76;stroke-width:5px;"/><path d="M442.573,223.411l24.36,14.904l-9.833,19.507l-16.315,-19.288l1.788,-15.123Z" style="fill:#fff;stroke:#234a76;stroke-width:5px;"/><path d="M508.257,223.411l-24.36,14.904l9.833,19.507l16.315,-19.288l-1.788,-15.123Z" style="fill:#fff;stroke:#234a76;stroke-width:5px;"/><path d="M576.993,329.926l0,61.278" style="fill:none;stroke:#234a76;stroke-width:5px;"/><path d="M466.933,238.606l16.964,0" style="fill:none;stroke:#234a76;stroke-width:5px;"/><path d="M423.737,134.483c0,0 8.592,-2.842 12.131,-22.751c0,0 2.781,-11.56 22.497,-10.275c0,0 13.397,7.707 34.124,-0.642c0,0 12.133,-2.997 19.716,11.346c0,0 2.844,17.029 11.027,22.322c0,0 11.779,-65.351 -50.052,-65.351c0,0 -60.563,-7.161 -49.443,65.351Z" style="fill:#e3eff8;stroke:#234a76;stroke-width:5px;"/><path d="M134.897,218.099c0,0 71.686,46.175 154.191,0c0,0 -11.001,-127.386 -76.842,-127.386c0,0 -77.349,-7.302 -77.349,127.386Z" style="fill:#e3eff8;stroke:#234a76;stroke-width:5px;"/><ellipse cx="210.659" cy="161.807" rx="46.837" ry="61.536" style="fill:#fff;stroke:#234a76;stroke-width:5px;"/><path d="M231.895,218.099l0,18.429c0,0 0.444,7.661 6.658,12.424c0,0 54.595,22.364 54.595,50.318l0,63.778" style="fill:none;stroke:#234a76;stroke-width:5px;"/><path d="M189.333,218.099l0,18.429c0,0 -0.444,7.661 -6.658,12.424c0,0 -54.596,22.364 -54.596,50.318l0,63.778" style="fill:none;stroke:#234a76;stroke-width:5px;"/><path d="M158.706,264.262c0,0 44.996,52.245 105.681,0.414c0,0 28.761,18.66 28.761,34.139l0,71.189c0,0 1.443,72.776 -82.551,72.776c0,0 -82.552,0.941 -82.552,-74.018l0,-68.057c0,0 0.083,-21.257 30.661,-36.443Z" style="fill:#fff;"/><path d="M189.333,218.099l0,19.405c0,0 -0.977,7.168 -6.742,11.375c0,0 -19.566,9.078 -23.885,13.265c0,0 44.399,52.323 105.496,0.829c0,0 -3.75,-4.148 -25.642,-14.105c0,0 -5.224,-2.999 -6.665,-11.743l0,-19.026c0,0 -18.967,12.566 -42.562,0Z" style="fill:#fff;stroke:#234a76;stroke-width:5px;"/><path d="M189.333,218.099l0,18.429c0,0 -0.444,7.661 -6.658,12.424c0,0 -54.596,22.364 -54.596,50.318l0,63.778" style="fill:none;stroke:#234a76;stroke-width:5px;"/><path d="M128.079,363.048l0,26.054" style="fill:none;stroke:#234a76;stroke-width:5px;"/><path d="M231.895,218.099l0,18.429c0,0 0.444,7.661 6.658,12.424c0,0 54.595,22.364 54.595,50.318l0,63.778" style="fill:none;stroke:#234a76;stroke-width:5px;"/><path d="M320.807,322.049c0,0 24,17.809 41.286,0.055c0,0 41.012,14.617 41.012,37.441l0,42.467c0,0 3.39,54.085 -61.094,54.085c0,0 -61.482,3.982 -61.482,-54.553l0,-42.232c0,0 -5.529,-17.467 40.278,-37.263Z" style="fill:#fff;"/><path d="M326.271,301.066l0,11.047c0,0 -0.695,4.08 -4.797,6.475c0,0 -13.922,5.167 -16.995,7.551c0,0 31.591,29.784 75.063,0.472c0,0 -2.668,-2.362 -18.244,-8.029c0,0 -3.718,-1.708 -4.743,-6.685l0,-10.831c0,0 -13.495,7.154 -30.284,0Z" style="fill:#fff;"/><ellipse cx="340.838" cy="256.214" rx="37.269" ry="48.965" style="fill:#fff;stroke:#234a76;stroke-width:5px;"/><path d="M326.03,301.006l0,12.842c0,0 -0.329,5.339 -4.943,8.658c0,0 -40.533,15.584 -40.533,35.063l0,44.443" style="fill:none;stroke:#234a76;stroke-width:5px;"/><path d="M280.554,402.012l0,20.65" style="fill:none;stroke:#234a76;stroke-width:5px;"/><path d="M357.629,301.006l0,12.842c0,0 0.33,5.339 4.943,8.658c0,0 40.533,15.584 40.533,35.063l0,44.443" style="fill:none;stroke:#234a76;stroke-width:5px;"/><path d="M403.105,402.012l0,20.65" style="fill:none;stroke:#234a76;stroke-width:5px;"/><path d="M341.817,195.012c0,0 -51.285,-3.106 -51.285,74.804c0,0 -15.012,10.095 -3.882,24.59c0,0 -23.632,30.023 9.277,40.455c0,0 13.084,-4.165 25.467,-9.338c0,0 4.636,-4.58 4.636,-9.5l0,-15.017c0,0 -23.92,-12.224 -22.46,-49.721c0,0 24.409,5.176 38.247,-20.401c0,0 7.986,20.401 36.29,20.401c0,0 3.379,31.275 -20.426,48.464l0,15.776c0,0 0.565,6.729 4.863,9.952c0,0 17.229,6.483 28.214,12.951c0,0 24.594,-6.272 7.72,-43.909c0,0 11.043,-20.321 -9.012,-25.887c0,0 2.682,-73.62 -47.649,-73.62Z" style="fill:#e3eff8;stroke:#234a76;stroke-width:5px;"/><path d="M160.645,149.631c0,0 42.064,-24.865 100.38,2.645c0,0 -10.451,-53.736 -49.339,-54.113c0,0 -33.569,-5.668 -51.041,51.468Z" style="fill:#e3eff8;stroke:#e3eff8;stroke-width:5px;"/><path d="M163.822,153.335c0,0 36.233,-25.054 93.675,0" style="fill:none;stroke:#234a76;stroke-width:5px;"/><path d="M326.03,322.049c0,0 13.869,17.731 31.599,0" style="fill:none;stroke:#234a76;stroke-width:5px;"/></svg>