<svg viewBox="0 0 678 457" version="1.1" xmlns="http://www.w3.org/2000/svg" style="fill-rule:evenodd;clip-rule:evenodd;stroke-linecap:round;stroke-linejoin:round;stroke-miterlimit:1.5;"><clipPath><rect x="0" y="1.101" width="677.675" height="453.236"/></clipPath><rect x="0" y="0" width="677.675" height="456.154" style="fill:none;"/><path d="M618.989,124.036c-36.638,20.024 -47.181,18.193 -76.779,-11.461c-29.598,-29.654 -40.253,-44.634 -14.749,-73.808c25.504,-29.175 66.331,-33.048 89.507,2.358c19.534,29.842 23.174,71.35 2.021,82.911Z" style="fill:#e3eff8;"/><path d="M517.658,151.747c35.327,82.697 138.282,157.738 -1.909,235.839c-140.192,78.1 -438.943,54.092 -476.981,-60.536c-35.822,-107.951 23.945,-218.845 108.411,-275.033c111.422,-74.12 340.026,28.442 370.479,99.73Z" style="fill:#e3eff8;"/><rect x="139.601" y="213.728" width="397.373" height="228.097" style="fill:#fff;"/><path d="M518.904,111.244l-357.602,0l-59.814,101.305l475.944,0l-58.528,-101.305Z" style="fill:#e3eff8;"/><path d="M141.309,213.728l0,228.097l395.665,0" style="fill:none;stroke:#234a76;stroke-width:5px;"/><path d="M536.974,441.825l0,-228.097" style="fill:none;stroke:#234a76;stroke-width:5px;"/><path d="M517.658,112.423l-357.601,0l-59.814,101.305l73.687,0" style="fill:none;stroke:#234a76;stroke-width:5px;"/><path d="M220.209,213.728l355.978,0" style="fill:none;stroke:#234a76;stroke-width:4px;"/><path d="M517.658,112.423l58.529,101.305" style="fill:none;stroke:#234a76;stroke-width:5px;"/><rect x="164.883" y="269.554" width="73.963" height="73.963" style="fill:#e3eff8;stroke:#234a76;stroke-width:5px;"/><path d="M201.865,269.554l0,73.963l36.981,0l0,-36.982l-73.963,0" style="fill:none;stroke:#234a76;stroke-width:5px;"/><rect x="440.56" y="269.554" width="73.963" height="73.963" style="fill:#e3eff8;stroke:#234a76;stroke-width:5px;"/><path d="M477.542,269.554l0,73.963l36.981,0l0,-36.982l-73.963,0" style="fill:none;stroke:#234a76;stroke-width:5px;"/><path d="M152.174,131.319l376.64,0" style="fill:none;stroke:#234a76;stroke-width:5px;stroke-dasharray:25,50,50,0;"/><path d="M138.019,151.747l401.632,0" style="fill:none;stroke:#234a76;stroke-width:5px;"/><path d="M124.942,172.297l426.956,0" style="fill:none;stroke:#234a76;stroke-width:5px;stroke-dasharray:75,25,25,0;"/><path d="M115.187,193.419l449.165,0" style="fill:none;stroke:#234a76;stroke-width:5px;"/><path d="M419.103,230.294l-79.962,-97.457l-79.324,97.457l0,211.531l159.286,0l0,-211.531Z" style="fill:none;stroke:#234a76;stroke-width:5px;"/><path d="M450.506,229.448l-111.365,-135.119l-109.991,135.135" style="fill:#e3eff8;stroke:#234a76;stroke-width:5px;"/><path d="M229.15,229.464l30.667,0l79.582,-96.627l79.704,96.627l31.403,0" style="fill:#fff;stroke:#234a76;stroke-width:5px;"/><path d="M301.869,355.207l0,86.618l74.545,0l0,-126.791l-74.545,0" style="fill:#e3eff8;stroke:#234a76;stroke-width:5px;"/><circle cx="339.141" cy="231.02" r="27.186" style="fill:#e3eff8;stroke:#234a76;stroke-width:5px;"/><rect x="288.445" y="429.381" width="98.595" height="12.444" style="fill:#fff;stroke:#234a76;stroke-width:5px;"/><rect x="294.755" y="416.707" width="87.746" height="12.444" style="fill:#fff;stroke:#234a76;stroke-width:5px;"/><path d="M301.869,315.034l0,16.405" style="fill:none;stroke:#234a76;stroke-width:5px;"/><path d="M301.869,340.632l0,5.964" style="fill:none;stroke:#234a76;stroke-width:5px;"/><path d="M185.893,213.728l23.092,0" style="fill:none;stroke:#234a76;stroke-width:4px;"/><circle cx="71.599" cy="405.901" r="9.571" style="fill:none;stroke:#e3eff8;stroke-width:5px;"/><circle cx="581.189" cy="384.324" r="16.351" style="fill:none;stroke:#e3eff8;stroke-width:5px;"/><circle cx="81.169" cy="55.678" r="20.819" style="fill:none;stroke:#e3eff8;stroke-width:5px;"/></svg>