<svg xmlns="http://www.w3.org/2000/svg" width="30" height="30" viewBox="0 0 30 30"><g fill="#333"><path d="M14.5 8.532c2.27 0 2.538.01 3.435.05.83.038 1.28.176 1.578.293.397.154.68.338.977.636.297.3.482.59.636.98.116.3.255.75.293 1.58.04.9.05 1.17.05 3.44s-.01 2.54-.05 3.436c-.04.83-.18 1.28-.3 1.578-.157.398-.34.68-.64.978-.297.3-.58.484-.977.638-.3.118-.75.257-1.58.295-.895.04-1.164.05-3.434.05s-2.54-.01-3.436-.05c-.83-.04-1.28-.177-1.577-.294a2.603 2.603 0 0 1-.977-.635 2.645 2.645 0 0 1-.635-.975c-.118-.3-.257-.75-.295-1.58-.04-.895-.05-1.164-.05-3.434s.01-2.536.05-3.433c.04-.83.177-1.28.294-1.578.153-.4.337-.68.635-.98.3-.297.58-.48.98-.635.3-.117.75-.256 1.574-.294.898-.04 1.166-.05 3.436-.05M14.5 7c-2.308 0-2.598.01-3.505.05-.905.042-1.523.186-2.063.396a4.166 4.166 0 0 0-1.506.98 4.161 4.161 0 0 0-.98 1.506c-.21.54-.354 1.16-.395 2.063-.04.907-.05 1.197-.05 3.505s.01 2.598.05 3.505c.05.905.19 1.523.4 2.063.22.56.51 1.033.98 1.506.478.473.95.763 1.51.98.54.21 1.16.354 2.064.395.907.04 1.197.05 3.505.05s2.6-.01 3.505-.05c.905-.05 1.523-.19 2.063-.4.56-.22 1.033-.51 1.506-.98.472-.478.762-.95.98-1.51.21-.54.353-1.16.394-2.064.04-.907.05-1.197.05-3.505s-.01-2.6-.05-3.505c-.04-.905-.185-1.523-.395-2.063a4.193 4.193 0 0 0-.98-1.506 4.188 4.188 0 0 0-1.506-.98c-.54-.21-1.16-.353-2.064-.394C17.097 7.01 16.807 7 14.5 7z"/><path d="M14.5 11.135a4.365 4.365 0 1 0 0 8.73 4.365 4.365 0 0 0 0-8.73zm0 7.198a2.834 2.834 0 1 1 .002-5.668 2.834 2.834 0 0 1-.002 5.668z"/><circle cx="19.037" cy="10.963" r="1.02"/></g></svg>