<?xml version="1.0" encoding="utf-8"?>
<svg version="1.1" xmlns:xlink="http://www.w3.org/1999/xlink" width="16px" height="14px" xmlns="http://www.w3.org/2000/svg">
  <g transform="matrix(1 0 0 1 -710 -610 )">
    <path d="M 12.4910714285714 8.24869791666667  C 12.5446428571429 8.30338541666667  12.5714285714286 8.37326388888889  12.5714285714286 8.45833333333333  L 12.5714285714286 11.375  C 12.5714285714286 12.0980902777778  12.3199404761905 12.7163628472222  11.8169642857143 13.2298177083333  C 11.3139880952381 13.7432725694444  10.7083333333333 14  10 14  L 2.57142857142857 14  C 1.86309523809524 14  1.25744047619048 13.7432725694444  0.754464285714286 13.2298177083333  C 0.251488095238095 12.7163628472222  0 12.0980902777778  0 11.375  L 0 3.79166666666667  C 0 3.06857638888889  0.251488095238095 2.45030381944444  0.754464285714286 1.93684895833333  C 1.25744047619048 1.42339409722222  1.86309523809524 1.16666666666667  2.57142857142857 1.16666666666667  L 8.85714285714286 1.16666666666667  C 8.94047619047619 1.16666666666667  9.00892857142857 1.19401041666667  9.0625 1.24869791666667  C 9.11607142857143 1.30338541666667  9.14285714285714 1.37326388888889  9.14285714285714 1.45833333333333  L 9.14285714285714 2.04166666666667  C 9.14285714285714 2.12673611111111  9.11607142857143 2.19661458333333  9.0625 2.25130208333333  C 9.00892857142857 2.30598958333333  8.94047619047619 2.33333333333333  8.85714285714286 2.33333333333333  L 2.57142857142857 2.33333333333333  C 2.17857142857143 2.33333333333333  1.84226190476191 2.47612847222222  1.5625 2.76171875  C 1.2827380952381 3.04730902777778  1.14285714285714 3.390625  1.14285714285714 3.79166666666667  L 1.14285714285714 11.375  C 1.14285714285714 11.7760416666667  1.2827380952381 12.1193576388889  1.5625 12.4049479166667  C 1.84226190476191 12.6905381944444  2.17857142857143 12.8333333333333  2.57142857142857 12.8333333333333  L 10 12.8333333333333  C 10.3928571428571 12.8333333333333  10.7291666666667 12.6905381944444  11.0089285714286 12.4049479166667  C 11.2886904761905 12.1193576388889  11.4285714285714 11.7760416666667  11.4285714285714 11.375  L 11.4285714285714 8.45833333333333  C 11.4285714285714 8.37326388888889  11.4553571428571 8.30338541666667  11.5089285714286 8.24869791666667  C 11.5625 8.19401041666667  11.6309523809524 8.16666666666667  11.7142857142857 8.16666666666667  L 12.2857142857143 8.16666666666667  C 12.3690476190476 8.16666666666667  12.4375 8.19401041666667  12.4910714285714 8.24869791666667  Z M 15.8303571428571 0.173177083333333  C 15.9434523809524 0.28862847222222  16 0.42534722222222  16 0.583333333333333  L 16 5.25  C 16 5.40798611111111  15.9434523809524 5.54470486111111  15.8303571428571 5.66015625  C 15.7172619047619 5.77560763888889  15.5833333333333 5.83333333333333  15.4285714285714 5.83333333333333  C 15.2738095238095 5.83333333333333  15.139880952381 5.77560763888889  15.0267857142857 5.66015625  L 13.4553571428571 4.05598958333333  L 7.63392857142857 9.99869791666667  C 7.57440476190476 10.0594618055556  7.50595238095238 10.08984375  7.42857142857143 10.08984375  C 7.35119047619048 10.08984375  7.2827380952381 10.0594618055556  7.22321428571429 9.99869791666667  L 6.20535714285714 8.95963541666667  C 6.14583333333333 8.89887152777778  6.11607142857143 8.82899305555556  6.11607142857143 8.75  C 6.11607142857143 8.67100694444444  6.14583333333333 8.60112847222222  6.20535714285714 8.54036458333333  L 12.0267857142857 2.59765625  L 10.4553571428571 0.993489583333333  C 10.3422619047619 0.878038194444444  10.2857142857143 0.741319444444444  10.2857142857143 0.583333333333333  C 10.2857142857143 0.42534722222222  10.3422619047619 0.28862847222222  10.4553571428571 0.173177083333333  C 10.5684523809524 0.0577256944444453  10.702380952381 0  10.8571428571429 0  L 15.4285714285714 0  C 15.5833333333333 0  15.7172619047619 0.0577256944444453  15.8303571428571 0.173177083333333  Z " fill-rule="nonzero" fill="#0d78c0" stroke="none" transform="matrix(1 0 0 1 710 610 )" />
  </g>
</svg>