<svg viewBox="0 0 223 234" xmlns="http://www.w3.org/2000/svg" style="fill-rule:evenodd;clip-rule:evenodd;stroke-linecap:round;stroke-linejoin:round;stroke-miterlimit:1.5;"><path d="M46.077,158.049c-4.241,-53.209 -28.69,-87.718 23.155,-113.587c51.846,-25.869 104.241,-17.432 115.33,29.249c10.443,43.963 24.988,92.638 -6.45,111.835c-41.47,25.324 -129.587,3.224 -132.035,-27.497Z" style="fill:#e3eff8;"/><path d="M151.556,96.959l-22.31,-23.364l-56.971,0l0,99.251l79.281,0l0,-75.887" style="fill:#fff;"/><path d="M51.51,187.171c16.349,5.195 27.602,6.957 26.905,19.322c-0.696,12.364 -11.105,18.669 -27.108,17.768c-16.003,-0.901 -28.626,-9.977 -24.384,-21.83c3.576,-9.991 15.147,-18.259 24.587,-15.26Z" style="fill:#e3eff8;"/><ellipse cx="112.485" cy="9.774" rx="6.794" ry="6.794" style="fill:none;stroke:#e3eff8;stroke-width:4px;"/><ellipse cx="146.955" cy="214.74" rx="6.794" ry="6.794" style="fill:none;stroke:#e3eff8;stroke-width:4px;"/><ellipse cx="20.706" cy="49.686" rx="4.274" ry="4.273" style="fill:none;stroke:#e3eff8;stroke-width:4px;"/><path d="M114.87,57.089c0,-1.712 -1.389,-3.101 -3.101,-3.101l-24.906,0c-1.712,0 -3.102,1.389 -3.102,3.101l0,6.202c0,1.712 1.39,3.102 3.102,3.102l24.906,0c1.712,0 3.101,-1.39 3.101,-3.102l0,-6.202Z" style="fill:#234a76;stroke:#e3eff8;stroke-width:4px;"/><path d="M151.556,96.959l-22.31,-23.364l-56.971,0l0,99.251l79.281,0l0,-75.887" style="fill:none;stroke:#234a76;stroke-width:4.54px;"/><path d="M151.556,96.959l-22.31,-23.364l-56.971,0l0,99.251l79.281,0l0,-75.887" style="fill:none;stroke:#234a76;stroke-width:4px;"/><path d="M129.026,73.595l0,21.89l20.136,0l-20.136,-21.89Z" style="fill:none;stroke:#234a76;stroke-width:4.54px;"/><path d="M134.154,69.388l0,-8.937l-16.01,0" style="fill:none;stroke:#234a76;stroke-width:4px;"/><path d="M81.056,60.451l-19.71,0l0,99.239l4.997,0" style="fill:none;stroke:#234a76;stroke-width:4px;"/><path d="M83.761,89.129l31.109,0" style="fill:none;stroke:#234a76;stroke-width:4px;"/><path d="M84.714,102.731l31.108,0" style="fill:none;stroke:#234a76;stroke-width:4px;"/><path d="M85.258,116.876l52.058,0" style="fill:none;stroke:#234a76;stroke-width:4px;"/><path d="M120.918,53.959c0,1.107 -0.899,2.006 -2.007,2.006c-1.107,0 -2.006,-0.899 -2.006,-2.006c0,-1.107 0.899,-2.006 2.006,-2.006c1.108,0 2.007,0.899 2.007,2.006Z" style="fill:#234a76;"/><path d="M128.753,53.959c0,1.107 -0.899,2.006 -2.006,2.006c-1.108,0 -2.007,-0.899 -2.007,-2.006c0,-1.107 0.899,-2.006 2.007,-2.006c1.107,0 2.006,0.899 2.006,2.006Z" style="fill:#234a76;"/><path d="M135.936,53.959c0,1.107 -0.899,2.006 -2.007,2.006c-1.107,0 -2.006,-0.899 -2.006,-2.006c0,-1.107 0.899,-2.006 2.006,-2.006c1.108,0 2.007,0.899 2.007,2.006Z" style="fill:#234a76;"/><path d="M176.223,126.933l-6.72,-6.719l0,6.719l6.72,0Z" style="fill:#fff;stroke:#234a76;stroke-width:4px;"/><path d="M202.68,100.479l-6.719,-6.719l-26.458,26.454l6.72,6.719l26.457,-26.454Z" style="fill:#fff;stroke:#234a76;stroke-width:4px;"/><path d="M105.516,159.634l31.456,0c0,0 28.038,-1.782 30.656,-27.435" style="fill:none;stroke:#234a76;stroke-width:4px;stroke-dasharray:2,6,0,0;stroke-dashoffset:24;"/><rect x="0" y="0" width="222.843" height="233.566" style="fill:none;"/></svg>