<svg viewBox="0 0 223 234" xmlns="http://www.w3.org/2000/svg" style="fill-rule:evenodd;clip-rule:evenodd;stroke-linecap:round;stroke-linejoin:round;stroke-miterlimit:1.5;"><path d="M49.557,60.132c11.454,-15.258 20.733,-23.484 10.566,-38.627c-10.166,-15.144 -24.851,-17.492 -39.28,-7.807c-14.429,9.685 -19.379,27.821 -6.255,40.428c11.062,10.626 28.356,14.816 34.969,6.006Z" style="fill:#e3eff8;"/><path d="M61.119,78.812c-10.744,55.794 -25.061,89.666 23.422,118.733c48.483,29.066 83.349,-4.434 100.116,-53.118c15.79,-45.848 9.626,-70.566 -19.343,-91.882c-38.213,-28.119 -97.992,-5.947 -104.195,26.267Z" style="fill:#e3eff8;"/><ellipse cx="207.974" cy="129.978" rx="5.957" ry="5.956" style="fill:none;stroke:#e3eff8;stroke-width:4px;"/><ellipse cx="41.684" cy="195.288" rx="5.957" ry="5.956" style="fill:none;stroke:#e3eff8;stroke-width:4px;"/><ellipse cx="177.788" cy="200.996" rx="7.367" ry="7.366" style="fill:none;stroke:#e3eff8;stroke-width:4px;"/><ellipse cx="102.108" cy="10.005" rx="7.367" ry="7.366" style="fill:none;stroke:#e3eff8;stroke-width:4px;"/><path d="M91.827,59.2l0,65.926l13.994,0l-8.707,69.035l56.596,-90.492l-21.768,0l16.93,-44.442l-57.045,-0.027Z" style="fill:#fff;stroke:#234a76;stroke-width:4px;"/><path d="M160.806,105.074l-22.108,35.803" style="fill:none;stroke:#234a76;stroke-width:4px;stroke-dasharray:2,8,0,0;"/><path d="M84.334,57.954l0,47.12" style="fill:none;stroke:#234a76;stroke-width:4px;stroke-dasharray:2,8,0,0;"/><rect x="0" y="0" width="222.843" height="233.566" style="fill:none;"/></svg>