<svg xmlns="http://www.w3.org/2000/svg" width="30" height="30" viewBox="0 0 30 30"><path fill="#333" d="M10.868 24c8.33 0 12.886-6.9 12.886-12.886 0-.196-.004-.39-.013-.585.89-.64 1.66-1.44 2.26-2.35-.81.36-1.68.6-2.6.71.94-.56 1.66-1.45 1.99-2.507-.87.52-1.84.896-2.87 1.1a4.53 4.53 0 0 0-7.715 4.13c-3.762-.19-7.1-1.99-9.333-4.73a4.529 4.529 0 0 0 1.401 6.044 4.489 4.489 0 0 1-2.05-.567v.058a4.526 4.526 0 0 0 3.632 4.44c-.38.106-.78.16-1.194.16-.29 0-.573-.03-.85-.08.58 1.8 2.25 3.11 4.23 3.145a9.078 9.078 0 0 1-6.702 1.876A12.68 12.68 0 0 0 10.868 24"/></svg>