<svg viewBox="0 0 223 234" xmlns="http://www.w3.org/2000/svg" style="fill-rule:evenodd;clip-rule:evenodd;stroke-linecap:round;stroke-linejoin:round;stroke-miterlimit:1.5;"><rect x="0" y="0" width="222.843" height="233.566" style="fill:none;"/><path d="M154.48,163.631c14.05,-10.559 21.812,-19.056 34.456,-10.081c12.644,8.976 13.813,22.21 4.463,35.38c-9.35,13.169 -25.527,17.892 -35.772,6.21c-8.635,-9.847 -11.259,-25.412 -3.147,-31.509Z" style="fill:#e3eff8;"/><path d="M105.639,43.687c37.036,29.422 64.447,43.34 49.551,86.033c-14.897,42.693 -48.649,57.525 -89.327,43.334c-40.679,-14.191 -63.917,-54.592 -40.337,-93.054c19.875,-32.417 58.73,-53.301 80.113,-36.313Z" style="fill:#e3eff8;"/><path d="M108.292,112.85c0,0 -16.19,-2.034 -34.523,17.506c0,0 -17.426,-28.001 -42.911,-4.533c0,0 4.13,-58.317 80.383,-59.324c0,0 70.411,3.626 72.426,62.749c0,0 -24.277,-23.468 -41.199,3.827c0,0 -15.166,-17.787 -34.176,-20.225" style="fill:#fff;"/><ellipse cx="113.384" cy="224.301" rx="6.122" ry="6.121" style="fill:none;stroke:#e3eff8;stroke-width:4px;"/><ellipse cx="183.718" cy="67.054" rx="6.122" ry="6.121" style="fill:none;stroke:#e3eff8;stroke-width:4px;"/><ellipse cx="16.083" cy="173.649" rx="4.626" ry="4.626" style="fill:none;stroke:#e3eff8;stroke-width:4px;"/><ellipse cx="112.383" cy="11.598" rx="8.239" ry="8.238" style="fill:none;stroke:#e3eff8;stroke-width:4px;"/><path d="M73.668,130.356c0,0 -0.201,-41.9 36.868,-63.857c0,0 27.6,17.017 32.032,66.491c0,0 -34.248,-43.22 -68.9,-2.634Z" style="fill:#e3eff8;stroke:#234a76;stroke-width:4px;"/><path d="M67.899,186.247c0,0 1.073,23.846 22.981,21.659c0,0 18.485,-1.072 17.412,-23.061l0,-71.995c0,0 -16.19,-2.034 -34.523,17.506c0,0 -17.426,-28.001 -42.911,-4.533c0,0 4.13,-58.317 80.383,-59.324c0,0 70.411,3.626 72.426,62.749c0,0 -24.277,-23.468 -41.199,3.827c0,0 -15.166,-17.787 -34.176,-20.225" style="fill:none;stroke:#234a76;stroke-width:4px;"/><path d="M113.102,60.137c0,-0.688 -0.558,-1.246 -1.246,-1.246l-2.492,0c-0.687,0 -1.246,0.558 -1.246,1.246l0,5.116c0,0.687 0.559,1.246 1.246,1.246l2.492,0c0.688,0 1.246,-0.559 1.246,-1.246l0,-5.116Z" style="fill:#234a76;stroke:#234a76;stroke-width:4px;"/><path d="M28.166,104.905c0,0 13.184,-28.172 35.85,-35.847" style="fill:none;stroke:#234a76;stroke-width:4.24px;stroke-dasharray:2.12,8.49,0,0;stroke-dashoffset:25.46;"/><path d="M116.379,142.223l0,41.355" style="fill:none;stroke:#234a76;stroke-width:4px;stroke-dasharray:2,8,0,0;stroke-dashoffset:24;"/></svg>