<?xml version="1.0" encoding="UTF-8" standalone="no"?>
<!DOCTYPE svg PUBLIC "-//W3C//DTD SVG 1.1//EN" "http://www.w3.org/Graphics/SVG/1.1/DTD/svg11.dtd">
<svg width="100%" height="100%" viewBox="0 0 1192 552" version="1.1" xmlns="http://www.w3.org/2000/svg" xmlns:xlink="http://www.w3.org/1999/xlink" xml:space="preserve" xmlns:serif="http://www.serif.com/" style="fill-rule:evenodd;clip-rule:evenodd;stroke-linecap:round;stroke-linejoin:round;stroke-miterlimit:1.5;">
    <g transform="matrix(1,0,0,1,-81.37,-54.1223)">
        <g id="Rain">
            <g transform="matrix(1,0,0,1.01315,0,-0.711631)">
                <path d="M159.834,597.973C159.834,597.973 -52.821,334.02 222.047,281.987C222.047,281.987 261.641,274.071 304.498,286.117C304.498,286.117 373.209,312.71 557.361,174.711C557.361,174.711 754.52,-39.716 1006.2,103.298C1006.2,103.298 1344.41,345.604 1259.58,597.973L159.834,597.973Z" style="fill:rgb(227,239,248);"/>
            </g>
            <g transform="matrix(0.517258,0,0,0.517258,284.034,289.088)">
                <path d="M0,0L597.158,597.158" style="fill:none;stroke:rgb(35,74,118);stroke-width:7.73px;stroke-dasharray:38.67,77.33,0,0;"/>
            </g>
            <g transform="matrix(0.248157,0,0,0.266841,91.1916,439.808)">
                <path d="M0,0L597.158,597.158" style="fill:none;stroke:rgb(35,74,118);stroke-width:15.52px;stroke-dasharray:77.62,155.24,0,0;"/>
            </g>
            <g transform="matrix(0.865657,0,0,0.865657,173.182,190.287)">
                <path d="M0,137.747L334.572,472.319" style="fill:none;stroke:rgb(35,74,118);stroke-width:4.62px;stroke-dasharray:23.1,46.21,115.52,0;"/>
            </g>
            <g transform="matrix(0.668672,0,0,0.668672,108.853,257.892)">
                <path d="M0,137.747L334.572,472.319" style="fill:none;stroke:rgb(35,74,118);stroke-width:5.98px;stroke-dasharray:29.91,59.82,0,0;"/>
            </g>
            <g transform="matrix(1.27681,0,0,1.27681,244.243,276.978)">
                <path d="M123.316,0L374.721,251.404" style="fill:none;stroke:rgb(35,74,118);stroke-width:3.13px;stroke-dasharray:15.66,31.33,31.33,0;"/>
            </g>
            <g transform="matrix(1.4534,0,0,1.4534,308.468,232.581)">
                <path d="M123.316,0L374.721,251.404" style="fill:none;stroke:rgb(35,74,118);stroke-width:2.75px;stroke-dasharray:13.76,27.52,0,0;"/>
            </g>
            <g transform="matrix(1.63675,0,0,1.63675,350.165,186.487)">
                <path d="M123.316,0L374.721,251.404" style="fill:none;stroke:rgb(35,74,118);stroke-width:2.44px;stroke-dasharray:12.22,24.44,0,0;"/>
            </g>
            <g transform="matrix(1.86198,0,0,1.86198,386.494,132.192)">
                <path d="M123.316,0L374.721,251.404" style="fill:none;stroke:rgb(35,74,118);stroke-width:2.15px;stroke-dasharray:10.74,10.74,21.48,0;"/>
            </g>
            <g transform="matrix(0.843729,0,0,0.843729,152.59,92.6019)">
                <path d="M636,0L1234.97,598.973" style="fill:none;stroke:rgb(35,74,118);stroke-width:4.74px;stroke-dasharray:47.41,71.11,0,0;"/>
            </g>
            <g transform="matrix(0.861744,0,0,0.861744,166.291,65.4338)">
                <path d="M727.405,0L1276,548.595" style="fill:none;stroke:rgb(35,74,118);stroke-width:4.64px;stroke-dasharray:23.21,46.42,0,0;"/>
            </g>
            <g transform="matrix(0.787776,0,0,0.787776,241.97,69.6963)">
                <path d="M838.947,0L1280,441.053" style="fill:none;stroke:rgb(35,74,118);stroke-width:5.08px;stroke-dasharray:50.78,50.78,0,0;"/>
            </g>
        </g>
    </g>
</svg>
