<?xml version="1.0" encoding="utf-8"?>
<svg version="1.1" xmlns:xlink="http://www.w3.org/1999/xlink" width="18px" height="18px" xmlns="http://www.w3.org/2000/svg">
  <g transform="matrix(1 0 0 1 -1660 -4177 )">
    <path d="M 0 8.592  C 0 3.84942857142857  3.84942857142857 0  8.592 0  C 13.3337142857143 0  17.1831428571429 3.84942857142857  17.1831428571429 8.592  C 17.1831428571429 13.3337142857143  13.3337142857143 17.1831428571429  8.592 17.1831428571429  C 3.84942857142857 17.1831428571429  0 13.3337142857143  0 8.592  Z M 9.42857142857143 13.7142857142857  L 9.42857142857143 12  L 7.71428571428572 12  L 7.71428571428572 13.7142857142857  L 9.42857142857143 13.7142857142857  Z M 9.42857142857143 10.2857142857143  L 9.42857142857143 3.42857142857143  L 7.71428571428572 3.42857142857143  L 7.71428571428572 10.2857142857143  L 9.42857142857143 10.2857142857143  Z " fill-rule="nonzero" fill="#c40404" stroke="none" transform="matrix(1 0 0 1 1660 4177 )" />
  </g>
</svg>