<svg viewBox="0 0 678 457" xmlns="http://www.w3.org/2000/svg" style="fill-rule:evenodd;clip-rule:evenodd;stroke-linecap:round;stroke-linejoin:round;stroke-miterlimit:1.5;"><clipPath><rect x="0" y="-0.972" width="676.921" height="456.856"/></clipPath><rect x="0" y="0" width="677.675" height="456.154" style="fill:none;"/><path d="M498.882,254.033c-91.824,113.653 -144.183,229.089 -283.843,161.842c-119.314,-57.45 -165.31,-155.854 -114.046,-255.089c49.434,-95.695 153.421,-145.404 251.696,-131.649c129.637,18.145 199.21,159.276 146.193,224.896Z" style="fill:#e3eff8;"/><path d="M223.658,439.111l0,-123.165c0,0 -0.69,-8.299 9.805,-22.034c0,0 20.835,-21.761 54.788,-35.188l50.491,51.019l50.237,-50.865c0,0 64.398,24.809 64.847,58.955c0.449,34.147 0,121.278 0,121.278" style="fill:#fff;"/><path d="M244.233,202.778c0,0 90.205,53.799 194.025,0c0,0 -13.843,-148.417 -96.695,-148.417c0,0 -97.33,-8.507 -97.33,148.417Z" style="fill:#e3eff8;stroke:#234a76;stroke-width:5px;"/><ellipse cx="339.567" cy="143.828" rx="58.938" ry="77.434" style="fill:#fff;stroke:#234a76;stroke-width:5px;"/><path d="M368.416,214.662l0,23.191c0,0 0.619,9.641 9.284,15.634c0,0 76.126,28.141 76.126,63.317l0,80.254" style="fill:none;stroke:#234a76;stroke-width:5px;"/><path d="M309.068,214.662l0,23.191c0,0 -0.619,9.641 -9.284,15.634c0,0 -76.126,28.141 -76.126,63.317l0,80.254" style="fill:none;stroke:#234a76;stroke-width:5px;"/><path d="M309.068,214.662l0,23.191c0,0 -0.619,9.641 -9.284,15.634c0,0 -76.126,28.141 -76.126,63.317l0,122.307" style="fill:none;stroke:#234a76;stroke-width:5px;"/><path d="M368.416,214.662l0,23.191c0,0 0.619,9.641 9.284,15.634c0,0 76.126,28.141 76.126,63.317l0,122.307" style="fill:none;stroke:#234a76;stroke-width:5px;"/><path d="M276.632,128.506c0,0 52.931,-31.288 126.312,3.329c0,0 -13.15,-67.618 -62.084,-68.093c0,0 -42.242,-7.131 -64.228,64.764Z" style="fill:#e3eff8;stroke:#e3eff8;stroke-width:5px;"/><path d="M258.405,355.795c0,0 -45.29,-104.534 80.569,-104.534c0,0 112.371,-9.224 68.544,99.752" style="fill:none;stroke:#234a76;stroke-width:8px;"/><ellipse cx="398.962" cy="366.433" rx="15.682" ry="17.145" style="fill:none;stroke:#234a76;stroke-width:5px;"/><ellipse cx="398.962" cy="366.433" rx="5.575" ry="6.095" style="fill:none;stroke:#234a76;stroke-width:5px;"/><path d="M243.722,404.926c-7.056,-17.881 0.495,-38.66 16.85,-46.373c16.356,-7.714 35.362,0.541 42.418,18.421" style="fill:none;stroke:#234a76;stroke-width:9px;"/><path d="M244.439,404.926l13.672,34.012c3.555,8.842 13.007,12.867 21.096,8.98" style="fill:none;stroke:#234a76;stroke-width:5px;"/><path d="M308.518,433.836c8.088,-3.886 11.769,-14.221 8.214,-23.064l-13.742,-34.185" style="fill:none;stroke:#234a76;stroke-width:5px;"/><ellipse cx="281.361" cy="446.799" rx="5.367" ry="5.867" style="fill:#234a76;"/><ellipse cx="308.357" cy="433.836" rx="5.367" ry="5.867" style="fill:#234a76;"/><path d="M308.847,212.462l0,23.834c0,0 1.479,9.343 -9.085,17.065l38.957,35.157l38.771,-34.989c0,0 -8.349,-5.697 -9.074,-17.233l0,-23.548c0,0 -10.196,7.686 -27.751,8.514c0,0 -16.288,0.638 -31.818,-8.8Z" style="fill:#fff;stroke:#234a76;stroke-width:5px;"/><path d="M288.231,259.232l50.511,50.511l50.237,-50.237l-12.719,-6.486l-37.634,37.634l-37.91,-37.91l-12.485,6.488Z" style="fill:#e3eff8;stroke:#234a76;stroke-width:5px;"/><path d="M276.079,115.339c0,0 59.34,-40.544 125.092,0l0,-45.292c0,0 0.315,-8.07 -7.094,-14.824c0,0 -50.916,-40.373 -111.486,0c0,0 -6.512,4.761 -6.512,14.824l0,45.292Z" style="fill:#fff;stroke:#234a76;stroke-width:5px;"/><path d="M343.999,54.228c0,-1.784 -1.204,-3.232 -2.686,-3.232l-5.374,0c-1.482,0 -2.686,1.448 -2.686,3.232l0,25.848c0,1.785 1.204,3.233 2.686,3.233l5.374,0c1.482,0 2.686,-1.448 2.686,-3.233l0,-19.389l0,-6.459Z" style="fill:#234a76;stroke:#234a76;stroke-width:2px;"/><path d="M352.192,72.271c1.872,0 3.393,-1.146 3.393,-2.559l0,-5.119c0,-1.413 -1.521,-2.56 -3.393,-2.56l-27.132,0c-1.872,0 -3.393,1.147 -3.393,2.56l0,5.119c0,1.413 1.521,2.559 3.393,2.559l20.352,0l6.78,0Z" style="fill:#234a76;stroke:#234a76;stroke-width:2px;"/><path d="M338.718,309.743l0.024,129.368" style="fill:none;stroke:#234a76;stroke-width:5px;"/><circle cx="354.347" cy="324.163" r="5.325" style="fill:#234a76;"/><circle cx="354.347" cy="354.14" r="5.325" style="fill:#234a76;"/><circle cx="354.392" cy="383.796" r="5.325" style="fill:#234a76;"/><path d="M280.629,132.168c0,0 45.594,-31.527 117.875,0" style="fill:none;stroke:#234a76;stroke-width:5px;"/><path d="M531.656,133.484c-34.596,-38.994 -62.622,-60.016 -31.915,-98.717c30.707,-38.701 75.06,-44.701 118.641,-19.95c43.581,24.751 58.532,71.1 18.892,103.318c-33.412,27.155 -85.643,37.863 -105.618,15.349Z" style="fill:#e3eff8;"/><circle cx="93.58" cy="394.37" r="13.343" style="fill:none;stroke:#e3eff8;stroke-width:5px;"/><circle cx="548.786" cy="300.549" r="13.343" style="fill:none;stroke:#e3eff8;stroke-width:5px;"/><circle cx="73.935" cy="58.988" r="27.058" style="fill:none;stroke:#e3eff8;stroke-width:5px;"/></svg>