<svg id="avatar" xmlns="http://www.w3.org/2000/svg" viewBox="0 0 24 24"><title>avatar</title><rect id="_avatar_" data-name="&lt;avatar&gt;" width="24" height="24" transform="translate(24 24) rotate(180)" style="fill:none"/><path id="_avatar_2" data-name="&lt;avatar&gt;" d="M12.00027,16.01629A7.33417,7.33417,0,0,1,5.365,10.6583a7.38388,7.38388,0,0,1-.36475-2.25718V6.11657c0-3.60132,2.87842-6.11657,7-6.11657s7,2.51525,7,6.11657V8.40112a7.39808,7.39808,0,0,1-.36474,2.25718A7.33515,7.33515,0,0,1,12.00027,16.01629Zm0-14.01425c-2.48876,0-5,1.2718-5,4.11453V8.40112a5.383,5.383,0,0,0,.269,1.64523h0c.63183,1.97173,2.45947,3.96791,4.731,3.96791,2.271,0,4.09864-1.99618,4.731-3.96791a5.39724,5.39724,0,0,0,.269-1.64523V6.11657C17.00027,3.27384,14.489,2.002,12.00027,2.002Z"/><path id="_avatar_3" data-name="&lt;avatar&gt;" d="M16.24582,17.0682a.985.985,0,0,0-.788.07424,6.91119,6.91119,0,0,1-6.9165-.001.98408.98408,0,0,0-.78777-.07423s-.18381.05676-.27392.08769c-3.05394,1.04826-4.47928,2.905-4.47786,5.8685A.97883.97883,0,0,0,4.00076,24a1.02153,1.02153,0,0,0,.99951-1.02643c0-1.97351.88843-3.11291,3.00629-3.872a8.95,8.95,0,0,0,3.99371.97457,8.943,8.943,0,0,0,3.9939-.97432c2.11731.75913,3.00556,1.89854,3.00556,3.8718A1.02153,1.02153,0,0,0,19.99924,24a.97883.97883,0,0,0,.999-.97658c.00143-2.97-1.43012-4.8283-4.49778-5.87532C16.41681,17.11954,16.24728,17.06833,16.24582,17.0682Z"/></svg>