<svg xmlns="http://www.w3.org/2000/svg" xmlns:xlink="http://www.w3.org/1999/xlink" width="70" height="70" viewBox="0 0 70 70">
    <defs>
        <circle id="a" cx="35" cy="35" r="35"/>
        <path id="b" d="M45.561 25.884h-3.33v-1.946c-.016-2.781-2.208-5.03-4.911-5.038H17.572a4.828 4.828 0 0 0-3.465 1.469 5.123 5.123 0 0 0-1.447 3.595v1.94h-1.443c-2.712.004-4.911 2.264-4.917 5.054v3.75a5.102 5.102 0 0 0 1.448 3.594 4.812 4.812 0 0 0 3.424 1.428 5.483 5.483 0 0 0 1.498 2.773 5.227 5.227 0 0 0 3.764 1.597c2.327-.013 4.38-1.572 5.076-3.857h13.264a5.46 5.46 0 0 0 1.358 2.26 5.227 5.227 0 0 0 3.764 1.597 5.219 5.219 0 0 0 3.769-1.623 5.527 5.527 0 0 0 1.452-2.747h.444c2.711-.003 4.91-2.26 4.917-5.049v-3.743c-.005-2.79-2.204-5.05-4.917-5.054zM33.995 21.18h3.32c1.485 0 2.692 1.235 2.7 2.763v1.941h-6.02V21.18zm-19.119 2.768a2.793 2.793 0 0 1 .789-1.962 2.653 2.653 0 0 1 1.907-.806h14.202v4.704H14.87l.005-1.936zM19.55 38.62c0 1.772-1.393 3.21-3.115 3.215a3.071 3.071 0 0 1-2.202-.934 3.246 3.246 0 0 1-.923-2.27 3.232 3.232 0 0 1 .908-2.275 3.077 3.077 0 0 1 2.222-.95c1.715.002 3.106 1.43 3.115 3.194l-.005.02zm23.462.17a3.215 3.215 0 0 1-.904 2.054 3.07 3.07 0 0 1-2.211.991 3.071 3.071 0 0 1-2.202-.934 3.246 3.246 0 0 1-.923-2.27 3.232 3.232 0 0 1 .908-2.275 3.077 3.077 0 0 1 2.222-.95c1.65.002 3.012 1.325 3.11 3.02v.364zm5.256-4.109c-.005 1.532-1.212 2.77-2.7 2.774h-.45a5.516 5.516 0 0 0-1.457-2.743 5.217 5.217 0 0 0-7.548.016 5.535 5.535 0 0 0-1.498 3.23H21.765c-.32-2.783-2.623-4.873-5.346-4.853a5.219 5.219 0 0 0-3.77 1.623 5.476 5.476 0 0 0-1.432 2.716 2.678 2.678 0 0 1-1.892-.806 2.803 2.803 0 0 1-.794-1.962v-3.743c.006-1.534 1.216-2.774 2.706-2.774h34.34c.713.01 1.394.31 1.891.837.509.52.794 1.226.794 1.962l.005 3.723zm6.75-3.63H58.8v2.28h-4.992a1.088 1.088 0 0 1-.785-.333 1.152 1.152 0 0 1-.323-.807 1.152 1.152 0 0 1 .323-.808c.208-.214.49-.334.785-.332h1.208zm-1.783-.601a1.1 1.1 0 0 1-.998-.637 1.175 1.175 0 0 1-.062-.877c.094-.29.295-.528.56-.664l4.349-2.28.998 2.054-3.634 1.906-.714.375c-.155.08-.326.122-.499.123zm1.488 4.15l.01-.021 3.364 1.761-.998 2.054-3.36-1.74-.998-.514a1.125 1.125 0 0 1-.565-.662c-.094-.29-.07-.607.066-.879.13-.274.362-.482.644-.579a1.08 1.08 0 0 1 .853.066l.959.513h.025z"/>
    </defs>
    <g fill="none" fill-rule="evenodd">
        <use fill="#91CCA3" fill-rule="nonzero" xlink:href="#a"/>
        <use fill="#479463" fill-rule="nonzero" transform="translate(3.5 3.5)" xlink:href="#b"/>
    </g>
</svg>
