<svg id="delete" xmlns="http://www.w3.org/2000/svg" viewBox="0 0 24 24"><title>delete</title><rect id="_delete_" data-name="&lt;delete&gt;" width="24" height="24" transform="translate(24 24) rotate(180)" style="fill:none"/><path id="_delete_2" data-name="&lt;delete&gt;" d="M17.999,6.00049H15.53516L13.832,3.4458A1.00028,1.00028,0,0,0,13,3.00049H11a.999.999,0,0,0-.832.44531L8.4657,6.00049H6.001a1,1,0,0,0,0,2h.07946L7,18.99951a2.00229,2.00229,0,0,0,2,2h6a1.9809,1.9809,0,0,0,1.99609-1.917l.92279-11.082H17.999a1,1,0,1,0,0-2Zm-6.46386-1h.92968l.66669,1H10.8689ZM15,18.99951l-6.00342-.083-.90942-10.916h7.826Z"/></svg>