<svg xmlns="http://www.w3.org/2000/svg" xmlns:xlink="http://www.w3.org/1999/xlink" width="60" height="60" viewBox="0 0 60 60">
    <defs>
        <path id="a" d="M30.583 47l-.497-.22a40.097 40.097 0 0 1-16.604-13.457C12.214 31.456 11 27.885 11 25.798c0-2.582.827-5.053 2.262-7.195 1.93-2.802 4.91-4.724 8.274-5.383 3.09-.55 6.289 0 8.936 1.593C32.458 13.659 34.665 13 36.982 13c3.42 0 6.674 1.263 9.157 3.68 2.482 2.417 3.806 5.603 3.861 9.063v.11a14.457 14.457 0 0 1-2.207 7.03c-5.185 8.295-16.272 13.623-16.714 13.842l-.496.275zM23.91 15.374c-.665 0-1.274.054-1.938.163a10.397 10.397 0 0 0-6.757 4.283c-1.218 1.68-1.827 3.686-1.827 5.747 0 1.572 1.052 4.608 2.049 6.017a37.26 37.26 0 0 0 15.008 12.253c2.215-1.084 11.076-5.91 15.34-12.524 1.107-1.734 1.716-3.74 1.827-5.8a10.22 10.22 0 0 0-3.156-7.211c-1.994-1.898-4.652-2.982-7.421-2.928-1.606 0-3.212.38-4.652 1.084 2.16 1.03 3.655 3.741 3.655 6.994 0 4.175-2.437 7.428-5.538 7.428-3.101 0-5.538-3.253-5.538-7.428 0-3.253 1.495-5.964 3.655-6.994-1.495-.704-3.101-1.084-4.707-1.084zm6.192 3.16c-1.705 0-3.184 2.347-3.184 5.14 0 2.794 1.479 5.14 3.184 5.14 1.706 0 3.184-2.346 3.184-5.14 0-2.793-1.478-5.14-3.184-5.14z"/>
    </defs>
    <use fill="#EF3340" fill-rule="nonzero" xlink:href="#a"/>
</svg>
