<svg xmlns="http://www.w3.org/2000/svg" xmlns:xlink="http://www.w3.org/1999/xlink" width="70" height="70" viewBox="0 0 70 70">
    <defs>
        <circle id="a" cx="35" cy="35" r="35"/>
        <path id="b" d="M32.112 49.35l-.521-.23a42.102 42.102 0 0 1-17.435-14.13c-1.332-1.962-2.606-5.71-2.606-7.902 0-2.71.869-5.306 2.375-7.555 2.027-2.942 5.155-4.96 8.688-5.652 3.243-.577 6.603 0 9.383 1.672 2.085-1.21 4.402-1.903 6.835-1.903 3.59 0 7.008 1.326 9.615 3.864 2.606 2.538 3.996 5.883 4.054 9.516v.116a15.18 15.18 0 0 1-2.317 7.382c-5.444 8.709-17.086 14.303-17.55 14.534l-.521.288zm-7.007-33.207c-.697 0-1.337.057-2.035.17a10.917 10.917 0 0 0-7.094 4.498c-1.28 1.764-1.919 3.87-1.919 6.034 0 1.65 1.105 4.839 2.152 6.319a39.123 39.123 0 0 0 15.758 12.865c2.326-1.138 11.63-6.205 16.107-13.15 1.163-1.822 1.803-3.928 1.919-6.091a10.732 10.732 0 0 0-3.315-7.571c-2.093-1.993-4.884-3.131-7.791-3.074a11.17 11.17 0 0 0-4.885 1.138c2.268 1.082 3.838 3.928 3.838 7.344 0 4.383-2.559 7.799-5.815 7.799-3.256 0-5.815-3.416-5.815-7.8 0-3.415 1.57-6.261 3.838-7.343-1.57-.74-3.256-1.138-4.943-1.138zm6.502 3.319c-1.79 0-3.343 2.463-3.343 5.396s1.552 5.397 3.343 5.397 3.343-2.464 3.343-5.397c0-2.933-1.552-5.396-3.343-5.396z"/>
    </defs>
    <g fill="none" fill-rule="evenodd">
        <use fill="#FFB3AB" fill-rule="nonzero" xlink:href="#a"/>
        <use fill="#EF3340" fill-rule="nonzero" transform="translate(3.5 3.5)" xlink:href="#b"/>
    </g>
</svg>
