<svg xmlns="http://www.w3.org/2000/svg" xmlns:xlink="http://www.w3.org/1999/xlink" width="70" height="70" viewBox="0 0 70 70">
    <defs>
        <circle id="a" cx="35" cy="35" r="35"/>
        <path id="b" d="M32.21 24.9a1.175 1.175 0 0 0-1.514 0L17.288 36.24c-.261.22-.413.543-.415.884v17.364c-.001.308.121.605.34.823.22.218.517.34.826.339h6.305v-9.543c.01-.838.52-1.589 1.296-1.91a2.107 2.107 0 0 1 2.272.434c.406.369.651.882.683 1.429v9.59h16.234c.31.001.608-.12.827-.339.219-.218.341-.515.34-.823V37.124c-.001-.34-.15-.664-.41-.885L32.209 24.9zm11.458 28.426H30.954v-7.33a4.454 4.454 0 0 0-4.624-4.26 4.484 4.484 0 0 0-4.282 4.308v7.282h-2.837V37.663l12.242-10.355 12.215 10.355v15.663zm1.05-25.007l7.782 6.57-1.508 1.774-19.481-16.469-19.503 16.47-1.508-1.776 20.243-17.102a1.164 1.164 0 0 1 1.514 0l5.254 4.434v-4.125a1.155 1.155 0 0 1 .34-.823c.219-.219.516-.34.826-.34h4.876c.31 0 .607.121.826.34.219.218.341.514.34.823v10.224zm-4.875-9.062v4.937l2.548 2.151v-7.088h-2.548zm-.047-7.925l.01-.686V9.484c0-.599.487-1.084 1.088-1.084.6 0 1.088.485 1.088 1.084V11.332a.387.387 0 0 0 .073.115 2.23 2.23 0 0 1 0 2.91.927.927 0 0 0-.084.115v1.09h-2.175v-1.09c-.007-.532.18-1.049.525-1.455a.927.927 0 0 0 .084-.115.927.927 0 0 0-.084-.115 2.199 2.199 0 0 1-.525-1.455zM36.623 45.51a4.379 4.379 0 0 0 4.355-4.392h-1.14 1.166a4.358 4.358 0 0 0-4.36-4.335h-.058a4.374 4.374 0 0 0-4.364 4.385 4.374 4.374 0 0 0 4.4 4.347v-.005zm-1.461-5.8a2.074 2.074 0 0 1 1.471-.592 2.035 2.035 0 0 1 1.445 3.466 2.058 2.058 0 0 1-1.445.607c-.543 0-1.064-.21-1.455-.586a2.043 2.043 0 0 1-.016-2.895z"/>
    </defs>
    <g fill="none" fill-rule="evenodd">
        <use fill="#F8D590" fill-rule="nonzero" xlink:href="#a"/>
        <use fill="#F2B100" fill-rule="nonzero" transform="translate(3.5)" xlink:href="#b"/>
    </g>
</svg>
