<svg xmlns="http://www.w3.org/2000/svg" xmlns:xlink="http://www.w3.org/1999/xlink" width="80" height="80" viewBox="0 0 80 80">
    <defs>
        <circle id="a" cx="40" cy="40" r="40"/>
        <path id="b" d="M48.152 56.606H18.025c-.812 0-1.489-.663-1.489-1.459V32.871c-2.776-.464-4.468-2.055-4.536-4.442v-.265l2.031-14.254c.135-.73.745-1.26 1.49-1.26H56.48c.744 0 1.354.53 1.489 1.26L60 26.97v.2c0 2.717-1.896 5.038-4.468 5.7v22.21c0 .796-.677 1.46-1.49 1.46l-5.89.066zm-10.629-2.918h6.703V42.153h-6.703v11.535zm-9.072 0h6.093V42.153h-6.093v11.535zm-3.52 0h.474V40.694c0-.796.677-1.459 1.49-1.459h18.82c.813 0 1.49.663 1.49 1.459v12.994h5.28v-20.75a6.327 6.327 0 0 1-3.114-1.923c-1.083 1.193-2.64 1.922-4.4 1.988-.813 0-1.625-.132-2.37-.464-.88-.397-1.625-.928-2.167-1.59a5.916 5.916 0 0 1-4.468 2.054c-1.15 0-2.234-.331-3.114-.928a6.124 6.124 0 0 1-1.422-1.193 6.284 6.284 0 0 1-4.468 2.055h-.068c-1.76-.066-3.385-.795-4.468-2.055-.745.862-1.76 1.458-2.911 1.79v20.884h5.416v.132zM50.996 27.17v.067c0 1.657 1.354 2.917 3.046 2.917 1.625 0 2.98-1.26 2.98-2.851l-1.829-11.669H16.874l-1.827 12.862c.135 1.392 1.895 1.591 2.978 1.591 1.49-.066 2.708-1.193 2.912-2.585v-.2l-.068-1.458h.203v-.132l1.422.066 1.421-.066v.132h.203l-.135 1.459v.199c.203 1.458 1.422 2.52 2.979 2.652a3.097 3.097 0 0 0 2.979-2.719v-.066l-.068-1.458h.203v-.133l1.422.066 1.422-.066v.133h.203l-.068 1.458v.066c.135.929.677 1.79 1.49 2.255.473.265.947.464 1.489.464 1.557-.067 2.843-1.326 2.979-2.851l-.136-1.459h.136v-.132l1.421.066 1.422-.066v.132h.136l-.068 1.393c.068 1.127.812 2.187 1.895 2.651.339.133.745.2 1.084.2 1.625-.067 2.979-1.327 3.046-2.918V25.777h.068v-.066l1.49.066h1.489v.066h.067l-.067 1.326z"/>
    </defs>
    <g fill="none" fill-rule="evenodd">
        <use fill="#FAC4B0" fill-rule="nonzero" xlink:href="#a"/>
        <use fill="#EB7D2E" fill-rule="nonzero" transform="translate(4 6)" xlink:href="#b"/>
    </g>
</svg>
