<svg xmlns="http://www.w3.org/2000/svg" xmlns:xlink="http://www.w3.org/1999/xlink" width="80" height="80" viewBox="0 0 80 80">
    <defs>
        <circle id="a" cx="40" cy="40" r="40"/>
        <path id="b" d="M49.3 60H14.69c-.813 0-1.49-.7-1.49-1.542 0-10.477 5.428-19.415 12.976-22.517a11.49 11.49 0 0 1-4.686-5.907 12.078 12.078 0 0 1 .344-8.914c2.686-5.826 9.437-8.352 15.154-5.615C41.05 17.4 43.6 21.61 43.6 26.104c0 .682-.057 1.365-.17 2.033a7.768 7.768 0 0 1 1.543-.154c2.252 0 4.298.84 5.867 2.451 1.57 1.611 2.388 3.713 2.457 5.954 0 2.241-.82 4.413-2.388 6.024-.242.259-.499.5-.77.722 5.05 2.318 8.661 8.31 8.661 15.346 0 .83-.679 1.52-1.56 1.52H49.3zm-17.04-3.083c.47-6.107 3.67-11.232 8.07-13.523a8.598 8.598 0 0 1-3.132-4.342 12.476 12.476 0 0 0-5.237-1.124c-8.33 0-15.104 8.408-15.713 18.989H32.26zm8.029-22.579a5.439 5.439 0 0 0-.433 2.12c0 2.942 2.388 5.323 5.185 5.323 1.365 0 2.73-.56 3.685-1.61.955-1.051 1.5-2.382 1.5-3.783 0-1.4-.545-2.732-1.5-3.782a5.046 5.046 0 0 0-3.616-1.541s-.069 0 0 0a5.08 5.08 0 0 0-3.14 1.065 11.086 11.086 0 0 1-1.681 2.208zm-2.552-1.826a8.245 8.245 0 0 1 1.948-2.492c.068-.133.133-.269.196-.407a9.005 9.005 0 0 0 .757-3.58 8.81 8.81 0 0 0-.253-2.096c-1.254.472-2.48.708-3.706.708-1.187 0-2.374-.22-3.49-.735a9.684 9.684 0 0 1-2.528-1.577c-1.805 2.424-4.937 3.05-6.711 3.2a8.997 8.997 0 0 0 .502 3.448c.757 2.106 2.273 3.861 4.339 4.773a8.255 8.255 0 0 0 8.946-1.242zM24.902 22.071c1.287-.263 2.82-.852 3.599-2.167-.267-.39-.491-.759-.675-1.085a8.028 8.028 0 0 0-2.924 3.252zm14.085-1.17a8.282 8.282 0 0 0-3.17-2.659c-1.171-.42-2.342-.702-3.513-.702-.485 0-.97.036-1.454.116.676 1.074 1.833 2.487 3.525 3.166 1.359.572 2.93.61 4.612.078zm-3.733 35.99h20.425C55.068 50.26 50.725 45.08 45.5 45.08c-5.293.069-9.636 5.18-10.246 11.812z"/>
    </defs>
    <g fill="none" fill-rule="evenodd">
        <use fill="#8FA1D4" fill-rule="nonzero" xlink:href="#a"/>
        <use fill="#4A5294" fill-rule="nonzero" transform="translate(4 4)" xlink:href="#b"/>
    </g>
</svg>
