<svg xmlns="http://www.w3.org/2000/svg" xmlns:xlink="http://www.w3.org/1999/xlink" width="103" height="131" viewBox="0 0 103 131">
    <path d="M80.716 28.375h.674v3.916a9.776 9.776 0 0 1-2.892 6.962l-4.709 4.712 4.709 4.711a9.776 9.776 0 0 1 2.892 6.96v5.752h-.674c1.015 0 1.837.579 1.837 1.293v1.935H56.875V62.68c0-.714.821-1.293 1.833-1.293h-.67v-5.753a9.776 9.776 0 0 1 2.892-6.959l4.711-4.711-4.711-4.712a9.776 9.776 0 0 1-2.893-6.962v-3.916h.671c-1.012 0-1.828-.578-1.828-1.293v-1.935h25.673v1.935c0 .715-.822 1.293-1.837 1.293zm-2.508 0h-16.99v3.916a6.618 6.618 0 0 0 1.953 4.712l6.544 6.544 6.544-6.544a6.615 6.615 0 0 0 1.95-4.712v-3.916zm0 33.013v-5.753a6.615 6.615 0 0 0-1.949-4.708l-6.544-6.544-6.547 6.544a6.618 6.618 0 0 0-1.95 4.708v5.753h16.99zm11.009 13.458l3.702-4.078v50.124H8V10h84.919v26.928a33.227 33.227 0 0 0-2.835-3.269c-.289-.289-.578-.578-.867-.838V13.702H11.702V117.22h77.515V74.846zM51.935 31.374a27.098 27.098 0 0 0-2.546 2.285c-.462.463-.896.926-1.33 1.418H23.503v-3.703h28.432zM23.503 45.055H42.36a26.734 26.734 0 0 0-.955 3.702H23.474v-3.702h.029zM41.32 58.707c.203 1.253.493 2.49.867 3.702H23.503v-3.702H41.32zm9.863 17.354h-27.68v-3.702h24.035c.579.694 1.186 1.36 1.822 2.024.608.579 1.215 1.128 1.823 1.678zm-27.68 9.95h53.884v3.702H23.503V86.01zm0 13.322h53.884v3.702H23.503v-3.702zm46.214-47.99a1.446 1.446 0 1 1 0-2.892 1.446 1.446 0 0 1 0 2.892zm0 4.917a1.446 1.446 0 1 1 0-2.892 1.446 1.446 0 0 1 0 2.892zm17.466-19.969h.01c9.798 9.807 9.794 25.699-.01 35.5-9.804 9.802-25.696 9.802-35.5 0-9.804-9.801-9.808-25.693-.009-35.5a25.412 25.412 0 0 1 4.376-3.502 4.648 4.648 0 0 0-.326 1.906 5.83 5.83 0 0 0 .63 2.389c-.723.56-1.41 1.166-2.056 1.813-8.359 8.364-8.359 21.919 0 30.283a21.369 21.369 0 0 0 30.253 0 21.438 21.438 0 0 0-1.964-32.024 4.784 4.784 0 0 0 .894-2.962 5.785 5.785 0 0 0-.142-1.055 25.163 25.163 0 0 1 3.844 3.152z"/>
</svg>
