<svg xmlns="http://www.w3.org/2000/svg" width="103" height="131" viewBox="0 0 103 131">
    <path fill-rule="nonzero" d="M89.02 74.69l3.694-4.069v50.004H8V10h84.714v26.863a33.147 33.147 0 0 0-2.828-3.26c-.288-.29-.577-.578-.865-.838V13.693H11.693V116.96h77.328V74.69zM51.83 31.323a27.033 27.033 0 0 0-2.54 2.28c-.461.46-.894.923-1.327 1.413H23.466v-3.693h28.363zM23.466 44.97h18.812a26.67 26.67 0 0 0-.952 3.693h-17.89V44.97h.03zm17.773 13.618a27.41 27.41 0 0 0 .866 3.694h-18.64v-3.694H41.24zm9.84 17.313H23.465v-3.694h23.977a39.583 39.583 0 0 0 1.818 2.02 95.865 95.865 0 0 0 1.817 1.674zm-27.613 9.925H77.22v3.693H23.466v-3.693zm0 13.29H77.22v3.693H23.466v-3.693zM68.03 41.993c0-1.12.828-2.02 1.846-2.02 1.019 0 1.847.903 1.847 2.02v17.436c0 1.114-.828 2.02-1.847 2.02-1.018 0-1.846-.903-1.846-2.02V41.993zm1.846 21.628a1.847 1.847 0 1 1 0 3.693 1.847 1.847 0 0 1 0-3.693zm-.386 15.446c-11.94-.01-22.211-8.45-24.533-20.163-2.323-11.711 3.95-23.433 14.984-27.997 11.033-4.564 23.754-.7 30.384 9.23 6.63 9.929 5.325 23.16-3.12 31.6a24.878 24.878 0 0 1-17.715 7.33zm0-46.397a21.12 21.12 0 0 0-15.09 6.261 21.366 21.366 0 0 0 15.09 36.471 21.12 21.12 0 0 0 15.09-6.26c8.338-8.345 8.338-21.867 0-30.21a21.12 21.12 0 0 0-15.09-6.262z"/>
</svg>
