<svg xmlns="http://www.w3.org/2000/svg" xmlns:xlink="http://www.w3.org/1999/xlink" width="70" height="70" viewBox="0 0 70 70">
    <defs>
        <circle id="a" cx="35" cy="35" r="35"/>
        <path id="b" d="M12.753 27.243a3.359 3.359 0 0 1-2.851-1.723 3.516 3.516 0 0 1 0-3.448 3.357 3.357 0 0 1 2.918-1.723c.673 0 1.218.557 1.218 1.245 0 .688-.545 1.246-1.218 1.246a.934.934 0 0 0-.87.458.98.98 0 0 0 0 1.002c.183.307.519.484.87.457a.91.91 0 0 0 .682-.304 1.24 1.24 0 0 1 .072-.081c2.495-6.252 9.172-10.722 16.982-10.722 1.739-.001 3.47.225 5.153.672 1.479.392 2.906.965 4.25 1.706l5.513-.486a1.2 1.2 0 0 1 1.056.465c.253.326.329.762.202 1.158l-1.173 3.67a15.229 15.229 0 0 1 2.34 4.543l3.795 1.38c.484.177.808.646.808 1.173v4.843c0 .488-.278.93-.712 1.132l-5.417 2.486a21.313 21.313 0 0 1-3.724 4.555v7.157c0 .33-.128.647-.357.88a1.199 1.199 0 0 1-.86.36h-5.468a1.199 1.199 0 0 1-.86-.36 1.255 1.255 0 0 1-.358-.88v-2.666a16.15 16.15 0 0 1-4.188.552l-.02.006c-1.502 0-2.96-.167-4.356-.48v2.594c0 .33-.129.646-.357.878a1.199 1.199 0 0 1-.86.362l.024-.005H19.5a1.199 1.199 0 0 1-.86-.362 1.255 1.255 0 0 1-.358-.879v-6.446c-3.538-2.96-5.755-7.18-5.755-11.856 0-.87.077-1.726.226-2.56zm7.906 13.145h.054v.038a16.347 16.347 0 0 0 5.36 2.515h.107v.028c1.389.358 2.857.55 4.376.55 3.668 0 7.019-1.547 9.656-3.715v-.042h.05c1.772-1.467 3.217-3.212 4.214-4.951.124-.228.315-.409.546-.517l5.053-2.342V28.81l-3.537-1.298a1.23 1.23 0 0 1-.84-.94 12.89 12.89 0 0 0-2.45-4.709 1.268 1.268 0 0 1-.222-1.178l.803-2.523-4.042.341a1.245 1.245 0 0 1-.702-.155 16.397 16.397 0 0 0-4.002-1.654 17.523 17.523 0 0 0-4.548-.589l.02.016c-8.59 0-15.572 6.145-15.572 13.697 0 4.248 2.212 8.054 5.676 10.57zm.054 2.98v3.49h3.031V44.8a18.762 18.762 0 0 1-3.031-1.432zm16.467 1.213v2.252h3.032v-3.938a18.757 18.757 0 0 1-3.032 1.686zM25.174 20.633l-.576-2.424 1.168-.295a22.126 22.126 0 0 1 9.55 0l1.182.295-.551 2.419-1.187-.29a19.724 19.724 0 0 0-8.403 0l-1.183.295zm15.7 4.176c.002.818-.643 1.484-1.442 1.489-.8.004-1.452-.654-1.459-1.472-.006-.818.636-1.487 1.435-1.495.797.003 1.442.663 1.445 1.478h.02z"/>
    </defs>
    <g fill="none" fill-rule="evenodd">
        <use fill="#73CFD4" fill-rule="nonzero" xlink:href="#a"/>
        <use fill="#008094" fill-rule="nonzero" transform="translate(3.5 3.5)" xlink:href="#b"/>
    </g>
</svg>
