<svg xmlns="http://www.w3.org/2000/svg" xmlns:xlink="http://www.w3.org/1999/xlink" width="70" height="70" viewBox="0 0 70 70">
    <defs>
        <circle id="a" cx="35" cy="35" r="35"/>
    </defs>
    <g fill="none" fill-rule="evenodd">
        <use fill="#8CE3D4" fill-rule="nonzero" transform="translate(0 .072)" xlink:href="#a"/>
        <path fill="#21C4B5" fill-rule="nonzero" d="M62.125 48.465v2.26H7.875v-2.26-.055c0-6.212 4.84-11.248 10.81-11.248 1.81 0 3.514.465 5.013 1.283-.546.574-1.05 1.19-1.51 1.843a8.224 8.224 0 0 0-3.503-.782c-4.719 0-8.558 3.994-8.558 8.904v.055h11.331c.391-7.14 6.304-12.81 13.542-12.81 7.238 0 13.151 5.67 13.542 12.81h11.33v-.055c0-4.91-3.838-8.904-8.557-8.904a8.224 8.224 0 0 0-3.502.782 16.375 16.375 0 0 0-1.51-1.843 10.425 10.425 0 0 1 5.012-1.283c5.97 0 10.81 5.036 10.81 11.248v.055zm-15.848 0C45.888 42.583 40.98 37.916 35 37.916c-5.979 0-10.888 4.667-11.277 10.549h22.554zm5.3-23.95a4.365 4.365 0 0 0-4.36 4.36 4.365 4.365 0 0 0 4.36 4.359 4.365 4.365 0 0 0 4.359-4.36 4.365 4.365 0 0 0-4.36-4.36zm0 11.14a6.781 6.781 0 1 1 0-13.562 6.781 6.781 0 0 1 0 13.563zm-16.2-15.964a5.799 5.799 0 0 0-5.793 5.793 5.799 5.799 0 0 0 5.793 5.792 5.799 5.799 0 0 0 5.792-5.792 5.799 5.799 0 0 0-5.792-5.793zm0 13.704a7.911 7.911 0 1 1 0-15.823 7.911 7.911 0 0 1 0 15.823zm-16.953-8.88a4.365 4.365 0 0 0-4.36 4.36 4.365 4.365 0 0 0 4.36 4.359 4.365 4.365 0 0 0 4.36-4.36 4.365 4.365 0 0 0-4.36-4.36zm0 11.14a6.781 6.781 0 1 1 0-13.562 6.781 6.781 0 0 1 0 13.563z"/>
    </g>
</svg>
